<?xml version="1.0" encoding="utf-8"?>
<svg role="img" viewBox="0 0 24 24" xmlns="http://www.w3.org/2000/svg" xmlns:bx="https://boxy-svg.com">
  <title>Microsoft Access icon</title>
  <path d="M 15 0.75 C 16.07 0.75 17.14 0.809 18.21 0.926 C 18.398 0.949 18.67 0.986 19.025 1.037 C 19.381 1.088 19.774 1.158 20.203 1.248 C 20.633 1.338 21.072 1.447 21.521 1.576 C 21.97 1.705 22.379 1.858 22.746 2.033 C 23.113 2.209 23.413 2.408 23.648 2.631 C 23.883 2.854 24 3.102 24 3.375 L 24 20.625 C 24 20.898 23.883 21.146 23.648 21.369 C 23.414 21.592 23.113 21.791 22.746 21.967 C 22.379 22.142 21.971 22.295 21.521 22.424 C 21.072 22.553 20.633 22.662 20.203 22.752 C 19.774 22.842 19.381 22.914 19.025 22.969 C 18.67 23.024 18.398 23.059 18.211 23.074 C 17.14 23.191 16.07 23.25 15 23.25 C 13.922 23.25 12.852 23.191 11.79 23.074 C 11.602 23.059 11.33 23.024 10.975 22.969 C 10.619 22.914 10.226 22.842 9.797 22.752 C 9.367 22.662 8.928 22.553 8.479 22.424 C 8.03 22.295 7.621 22.142 7.254 21.967 C 6.887 21.791 6.587 21.592 6.352 21.369 C 6.117 21.146 6 20.898 6 20.625 L 6 18 L 0.996 18 C 0.723 18 0.488 17.902 0.293 17.707 C 0.098 17.512 0 17.277 0 17.004 L 0 6.996 C 0 6.723 0.098 6.488 0.293 6.293 C 0.488 6.098 0.723 6 0.996 6 L 6 6 L 6 3.375 C 6 3.102 6.117 2.854 6.352 2.631 C 6.586 2.408 6.887 2.209 7.254 2.033 C 7.621 1.858 8.029 1.705 8.479 1.576 C 8.928 1.447 9.367 1.338 9.797 1.248 C 10.226 1.158 10.619 1.088 10.975 1.038 C 11.33 0.987 11.602 0.949 11.789 0.926 C 12.852 0.809 13.922 0.75 15 0.75 Z M 15 2.25 C 14.492 2.25 13.925 2.268 13.3 2.303 C 12.675 2.338 12.041 2.398 11.396 2.484 C 10.752 2.571 10.125 2.686 9.516 2.83 C 8.907 2.975 8.367 3.156 7.898 3.375 C 8.383 3.602 8.928 3.787 9.533 3.932 C 10.138 4.076 10.759 4.189 11.396 4.272 C 12.033 4.354 12.662 4.412 13.283 4.447 C 13.904 4.482 14.477 4.5 15 4.5 C 15.523 4.5 16.096 4.482 16.717 4.447 C 17.338 4.412 17.967 4.354 18.604 4.271 C 19.241 4.189 19.862 4.076 20.467 3.931 C 21.072 3.787 21.617 3.602 22.102 3.375 C 21.633 3.156 21.093 2.975 20.484 2.83 C 19.875 2.685 19.248 2.57 18.604 2.484 C 17.959 2.398 17.324 2.338 16.699 2.303 C 16.074 2.268 15.508 2.25 15 2.25 Z M 22.5 20.379 L 22.5 16.829 C 21.985 17.055 21.408 17.242 20.771 17.391 C 20.134 17.539 19.48 17.658 18.809 17.748 C 18.137 17.838 17.473 17.902 16.816 17.941 C 16.16 17.98 15.555 18 15 18 C 14.43 18 13.862 17.982 13.295 17.947 C 12.728 17.912 12.164 17.864 11.602 17.801 C 11.422 17.934 11.223 18 11.004 18 L 7.5 18 L 7.5 20.379 C 7.727 20.559 8.031 20.719 8.414 20.859 C 8.797 21 9.221 21.121 9.686 21.223 C 10.151 21.324 10.637 21.408 11.145 21.475 C 11.652 21.542 12.146 21.596 12.627 21.639 C 13.107 21.682 13.554 21.711 13.969 21.727 C 14.382 21.742 14.726 21.75 15 21.75 C 15.273 21.75 15.617 21.742 16.031 21.727 C 16.445 21.711 16.892 21.682 17.373 21.639 C 17.853 21.596 18.347 21.541 18.855 21.475 C 19.363 21.408 19.85 21.324 20.315 21.223 C 20.78 21.121 21.203 21 21.585 20.859 C 21.968 20.719 22.273 20.559 22.5 20.379 Z M 22.5 15.152 L 22.5 10.828 C 21.985 11.055 21.408 11.242 20.771 11.391 C 20.134 11.539 19.48 11.658 18.809 11.748 C 18.137 11.838 17.473 11.902 16.816 11.941 C 16.16 11.98 15.555 12 15 12 C 14.5 12 14 11.986 13.5 11.959 C 13 11.932 12.5 11.895 12 11.848 L 12 16.348 C 12.5 16.403 13 16.442 13.5 16.465 C 14 16.488 14.5 16.5 15 16.5 C 15.289 16.5 15.641 16.492 16.055 16.477 C 16.468 16.461 16.912 16.432 17.385 16.389 C 17.858 16.346 18.344 16.291 18.844 16.225 C 19.344 16.158 19.824 16.074 20.285 15.973 C 20.746 15.871 21.17 15.754 21.557 15.621 C 21.944 15.488 22.258 15.331 22.5 15.152 Z M 22.5 9.152 L 22.5 4.828 C 21.985 5.055 21.408 5.242 20.771 5.391 C 20.134 5.539 19.48 5.658 18.809 5.748 C 18.137 5.838 17.473 5.902 16.816 5.941 C 16.16 5.98 15.555 6 15 6 C 14.445 6 13.84 5.98 13.184 5.941 C 12.527 5.902 11.863 5.838 11.191 5.748 C 10.52 5.658 9.866 5.539 9.229 5.391 C 8.592 5.242 8.015 5.055 7.5 4.828 L 7.5 6 L 11.004 6 C 11.277 6 11.512 6.098 11.707 6.293 C 11.902 6.488 12 6.723 12 6.996 L 12 10.348 C 12.5 10.403 13 10.442 13.5 10.465 C 14 10.488 14.5 10.5 15 10.5 C 15.289 10.5 15.641 10.492 16.055 10.477 C 16.468 10.461 16.912 10.432 17.385 10.389 C 17.858 10.346 18.344 10.291 18.844 10.225 C 19.344 10.158 19.824 10.074 20.285 9.973 C 20.746 9.871 21.168 9.754 21.551 9.621 C 21.934 9.488 22.25 9.331 22.5 9.152 Z"/>
  <path style="fill: rgb(216, 216, 216); stroke: rgb(0, 0, 0);" d="M 4.406 16.976"/>
  <path style="fill: rgb(216, 216, 216); stroke: rgb(0, 0, 0);" d="M 6.344 12.702"/>
  <path d="M 224.285 399.625 m -4.153 0 a 4.153 4.153 0 1 0 8.306 0 a 4.153 4.153 0 1 0 -8.306 0 Z M 224.285 399.625 m -2.225 0 a 2.225 2.225 0 0 1 4.45 0 a 2.225 2.225 0 0 1 -4.45 0 Z" style="fill: rgb(255, 255, 255);" transform="matrix(-0.789137, 0.614218, -0.614218, -0.789137, 428.24893, 189.128404)" bx:shape="ring 224.285 399.625 2.225 2.225 4.153 4.153 1@19428c90"/>
</svg>